<svg width="45" height="32" viewBox="0 0 45 32" fill="none" xmlns="http://www.w3.org/2000/svg">
<rect width="45" height="32" rx="4" fill="#26A6D1"/>
<path d="M7.23774 11.2002L2.79395 20.9293H8.11379L8.7733 19.378H10.2808L10.9403 20.9293H16.7959V19.7453L17.3177 20.9293H20.3467L20.8685 19.7203V20.9293H33.0467L34.5275 19.4183L35.9141 20.9293L42.169 20.9418L37.7112 16.0919L42.169 11.2002H36.0111L34.5696 12.6832L33.2267 11.2002H19.9784L18.8408 13.7113L17.6765 11.2002H12.3677V12.3438L11.7772 11.2002C11.7772 11.2002 7.23774 11.2002 7.23774 11.2002ZM8.2671 12.5817H10.8602L13.8078 19.1791V12.5817H16.6485L18.9251 17.312L21.0233 12.5817H23.8498V19.563H22.13L22.1159 14.0925L19.6086 19.563H18.0701L15.5487 14.0925V19.563H12.0105L11.3398 17.9979H7.71587L7.04649 19.5616H5.1508L8.2671 12.5817ZM25.4233 12.5817H32.4166L34.5556 14.8675L36.7634 12.5817H38.9023L35.6525 16.0905L38.9023 19.5589H36.6664L34.5275 17.2465L32.3084 19.5589H25.4233V12.5817ZM9.52858 13.7629L8.33466 16.551H10.7211L9.52858 13.7629ZM27.1503 14.0272V15.3016H30.9654V16.7221H27.1503V18.1134H31.4295L33.4179 16.0641L31.5139 14.026H27.1503V14.0272Z" fill="white"/>
</svg>
