<svg width="46" height="32" viewBox="0 0 46 32" fill="none" xmlns="http://www.w3.org/2000/svg">
<rect width="46" height="32" rx="4" fill="white"/>
<path d="M18.7151 26.6253L19.1209 24.1315L18.217 24.1112H13.9009L16.9003 5.709C16.9097 5.65345 16.9399 5.60165 16.9841 5.56487C17.0284 5.52808 17.085 5.50781 17.144 5.50781H24.4215C26.8375 5.50781 28.5049 5.99427 29.3754 6.95443C29.7835 7.40486 30.0434 7.87556 30.1691 8.39355C30.301 8.93706 30.3033 9.58643 30.1745 10.3784L30.1652 10.4362V10.9437L30.5733 11.1674C30.917 11.3438 31.1901 11.5458 31.3996 11.777C31.7487 12.1621 31.9745 12.6516 32.0699 13.2319C32.1685 13.8287 32.1359 14.5389 31.9745 15.3429C31.7883 16.2678 31.4873 17.0733 31.0807 17.7324C30.7067 18.3397 30.2304 18.8435 29.6648 19.2338C29.1248 19.6047 28.4831 19.8862 27.7577 20.0664C27.0548 20.2435 26.2533 20.3329 25.3743 20.3329H24.8079C24.4029 20.3329 24.0095 20.474 23.7007 20.727C23.3912 20.9852 23.1863 21.3381 23.1235 21.7239L23.0808 21.9484L22.3639 26.3438L22.3314 26.5052C22.3228 26.5563 22.3081 26.5818 22.2864 26.5991C22.267 26.6148 22.239 26.6253 22.2119 26.6253H18.7151Z" fill="#253B80"/>
<path d="M30.9601 10.4946C30.9384 10.629 30.9136 10.7664 30.8856 10.9075C29.9259 15.6753 26.6425 17.3224 22.4489 17.3224H20.3138C19.8009 17.3224 19.3688 17.6827 19.2889 18.1722L18.1957 24.8805L17.8861 26.7821C17.8341 27.1034 18.0902 27.3932 18.4253 27.3932H22.2123C22.6607 27.3932 23.0417 27.0779 23.1123 26.6499L23.1495 26.4638L23.8626 22.0856L23.9083 21.8454C23.9782 21.416 24.3599 21.1007 24.8083 21.1007H25.3747C29.0437 21.1007 31.916 19.6593 32.7554 15.4884C33.1061 13.746 32.9246 12.2911 31.9967 11.2679C31.7158 10.9593 31.3674 10.7033 30.9601 10.4946Z" fill="#179BD7"/>
<path d="M29.9561 10.1072C29.8095 10.066 29.6582 10.0284 29.503 9.99464C29.347 9.9616 29.1872 9.93233 29.0227 9.9068C28.447 9.81672 27.8163 9.77393 27.1405 9.77393H21.4364C21.296 9.77393 21.1625 9.80471 21.043 9.86026C20.78 9.98262 20.5845 10.2236 20.5372 10.5186L19.3237 17.9552L19.2888 18.1721C19.3687 17.6827 19.8009 17.3223 20.3137 17.3223H22.4489C26.6424 17.3223 29.9258 15.6745 30.8856 10.9075C30.9143 10.7664 30.9383 10.629 30.9601 10.4946C30.7172 10.37 30.4542 10.2634 30.171 10.1726C30.1012 10.15 30.029 10.1283 29.9561 10.1072Z" fill="#222D65"/>
<path d="M20.5372 10.5187C20.5845 10.2237 20.7801 9.98274 21.0431 9.86112C21.1633 9.80557 21.296 9.77479 21.4364 9.77479H27.1405C27.8163 9.77479 28.4471 9.81758 29.0228 9.90766C29.1873 9.93319 29.3471 9.96247 29.503 9.9955C29.6582 10.0293 29.8095 10.0668 29.9561 10.1081C30.0291 10.1291 30.1012 10.1509 30.1718 10.1727C30.455 10.2635 30.718 10.3709 30.9609 10.4947C31.2464 8.7328 30.9585 7.53316 29.974 6.44688C28.8886 5.251 26.9295 4.73901 24.4227 4.73901H17.1452C16.6331 4.73901 16.1963 5.09936 16.1172 5.58957L13.0859 24.1809C13.0261 24.5488 13.3194 24.8806 13.7027 24.8806H18.1957L19.3238 17.9553L20.5372 10.5187Z" fill="#253B80"/>
</svg>
