<svg width="63" height="45" viewBox="0 0 63 45" fill="none" xmlns="http://www.w3.org/2000/svg">
<rect width="62.4" height="45" rx="4" fill="white"/>
<path d="M27.7809 30.8371H23.5024L26.1785 14.2397H30.4567L27.7809 30.8371Z" fill="#00579F"/>
<path d="M43.2906 14.6456C42.4467 14.3098 41.1082 13.939 39.4532 13.939C35.2281 13.939 32.2528 16.1989 32.2345 19.4299C32.1994 21.8138 34.3647 23.1378 35.9842 23.9327C37.6395 24.7449 38.2022 25.275 38.2022 25.999C38.1853 27.1109 36.8646 27.6235 35.6328 27.6235C33.9247 27.6235 33.0094 27.3592 31.6185 26.7406L31.0551 26.4754L30.4564 30.2012C31.4599 30.6597 33.3086 31.0666 35.2281 31.0845C39.7173 31.0845 42.64 28.8595 42.6746 25.4163C42.6917 23.5269 41.5483 22.0792 39.0833 20.8962C37.5869 20.1368 36.6704 19.6247 36.6704 18.8477C36.688 18.1413 37.4455 17.4178 39.1348 17.4178C40.5257 17.3824 41.5476 17.7177 42.3218 18.0533L42.7087 18.2296L43.2906 14.6456Z" fill="#00579F"/>
<path d="M48.9769 24.9572C49.3292 24.0037 50.685 20.3134 50.685 20.3134C50.6673 20.3489 51.0367 19.3423 51.248 18.7244L51.547 20.1546C51.547 20.1546 52.3572 24.1274 52.5331 24.9572C51.8644 24.9572 49.822 24.9572 48.9769 24.9572ZM54.2581 14.2397H50.9487C49.9282 14.2397 49.1528 14.5397 48.7125 15.6168L42.3574 30.8368H46.8467C46.8467 30.8368 47.5858 28.7883 47.7446 28.3471C48.2371 28.3471 52.6042 28.3471 53.2378 28.3471C53.3606 28.9298 53.7483 30.8368 53.7483 30.8368H57.7097L54.2581 14.2397Z" fill="#00579F"/>
<path d="M19.9287 14.2397L15.7386 25.5575L15.2808 23.2621C14.5061 20.6136 12.0767 17.736 9.36554 16.3051L13.2034 30.8195H17.7278L24.4528 14.2397H19.9287Z" fill="#00579F"/>
<path d="M11.8481 14.2397H4.96447L4.89404 14.5751C10.2637 15.9524 13.8199 19.2724 15.281 23.2628L13.7846 15.6349C13.5382 14.5749 12.7811 14.2747 11.8481 14.2397Z" fill="#FAA61A"/>
</svg>
